<?xml version="1.0" encoding="UTF-8"?>
<svg width="25px" height="64px" viewBox="0 0 25 64" version="1.1" xmlns="http://www.w3.org/2000/svg" xmlns:xlink="http://www.w3.org/1999/xlink">
    <!-- Generator: Sketch 48.2 (47327) - http://www.bohemiancoding.com/sketch -->
    <title>destinationPin.svg</title>
    <desc>Created with Sketch.</desc>
    <defs></defs>
    <g id="Page-1" stroke="none" stroke-width="1" fill="none" fill-rule="evenodd">
        <g id="destinationPin.svg" fill="#FF9800" fill-rule="nonzero">
            <path d="M12.5,25.433128 C19.3106791,25.433128 24.8318253,19.9119818 24.8318253,13.1013027 C24.8318253,6.29062365 19.3106791,0.769477401 12.5,0.769477401 C5.68932095,0.769477401 0.168174701,6.29062365 0.168174701,13.1013027 C0.168174701,19.9119818 5.68932095,25.433128 12.5,25.433128 Z M8.20078519,10.8104598 C9.8622631,10.8104598 11.2091571,9.46356579 11.2091571,7.80208789 C11.2091571,6.14061 9.8622631,4.79371604 8.20078519,4.79371604 C6.5393073,4.79371604 5.19241334,6.14061 5.19241334,7.80208789 C5.19241334,9.46356579 6.5393073,10.8104598 8.20078519,10.8104598 Z" id="Shape"></path>
            <polygon id="Shape" transform="translate(12.500000, 37.433128) scale(-1, 1) rotate(-180.000000) translate(-12.500000, -37.433128) " points="12.5 10.933128 16.5 63.933128 8.5 63.933128"></polygon>
        </g>
    </g>
</svg>