<?xml version="1.0" encoding="UTF-8"?>
<svg width="88px" height="95px" viewBox="0 0 88 95" version="1.1" xmlns="http://www.w3.org/2000/svg" xmlns:xlink="http://www.w3.org/1999/xlink">
    <!-- Generator: Sketch 48.2 (47327) - http://www.bohemiancoding.com/sketch -->
    <title>distance</title>
    <desc>Created with Sketch.</desc>
    <defs></defs>
    <g id="Page-1" stroke="none" stroke-width="1" fill="none" fill-rule="evenodd">
        <g id="distance" fill="#46AFFC" fill-rule="nonzero">
            <path d="M20.4,85.9 C20.4,85.9 31.3,64.6 33.8,59.6 C36.3,54.6 36.4,48.9 33.8,43.8 C29.4,35.1 18.8,31.6 10.1,36 C1.5,40.3 -1.9,51.3 2.3,59.6 C6.6,67.9 15.7,85.9 15.7,85.9 C16.7,87.9 19.4,87.9 20.4,85.9 Z M8.9,52 C8.9,46.9 13,42.8 18.1,42.8 C23.2,42.8 27.3,46.9 27.3,52 C27.3,57.1 23.2,61.2 18.1,61.2 C13,61.2 8.9,57.1 8.9,52 Z" id="Shape"></path>
            <path d="M85.6,10.2 C81.2,1.5 70.6,-2 61.9,2.4 C53.2,6.8 49.8,17.7 54.1,26.1 C58.4,34.4 67.5,52.4 67.5,52.4 C68.4,54.3 71.2,54.3 72.1,52.4 C72.1,52.4 83,31.1 85.5,26.1 C88.1,21 88.2,15.4 85.6,10.2 Z M69.9,27.3 C64.8,27.3 60.7,23.2 60.7,18.1 C60.7,13 64.8,8.9 69.9,8.9 C75,8.9 79.1,13 79.1,18.1 C79.1,23.2 75,27.3 69.9,27.3 Z" id="Shape"></path>
            <path d="M72.1076031,57.0307396 C71.0076031,56.8307396 70.0076031,57.6307396 69.8076031,58.7307396 C69.8076031,58.9307396 67.1076031,74.1307396 55.1076031,82.7307396 C42.9076031,91.4307396 20.3076031,90.4307396 20.1076031,90.4307396 C19.0076031,90.3307396 18.1076031,91.2307396 18.0076031,92.3307396 C17.9076031,93.4307396 18.8076031,94.3307396 19.9076031,94.4307396 C20.1076031,94.4307396 21.0076031,94.5307396 22.6076031,94.5307396 C29.2076031,94.5307396 46.6076031,93.7307396 57.5076031,86.0307396 C70.9076031,76.4307396 73.7076031,60.0307396 73.8076031,59.3307396 C73.9076031,58.2307396 73.2076031,57.2307396 72.1076031,57.0307396 Z" id="Shape"></path>
        </g>
    </g>
</svg>