<svg width="88" height="95" xmlns="http://www.w3.org/2000/svg">
  <g fill="#46AFFC" fill-rule="nonzero">
    <path d="M20.4 85.9s10.9-21.3 13.4-26.3 2.6-10.7 0-15.8c-4.4-8.7-15-12.2-23.7-7.8-8.6 4.3-12 15.3-7.8 23.6 4.3 8.3 13.4 26.3 13.4 26.3 1 2 3.7 2 4.7 0zM8.9 52c0-5.1 4.1-9.2 9.2-9.2s9.2 4.1 9.2 9.2-4.1 9.2-9.2 9.2-9.2-4.1-9.2-9.2zM85.6 10.2C81.2 1.5 70.6-2 61.9 2.4c-8.7 4.4-12.1 15.3-7.8 23.7 4.3 8.3 13.4 26.3 13.4 26.3.9 1.9 3.7 1.9 4.6 0 0 0 10.9-21.3 13.4-26.3 2.6-5.1 2.7-10.7.1-15.9zM69.9 27.3c-5.1 0-9.2-4.1-9.2-9.2s4.1-9.2 9.2-9.2 9.2 4.1 9.2 9.2-4.1 9.2-9.2 9.2zM72.108 57.03c-1.1-.2-2.1.6-2.3 1.7 0 .2-2.7 15.4-14.7 24-12.2 8.7-34.8 7.7-35 7.7-1.1-.1-2 .8-2.1 1.9-.1 1.1.8 2 1.9 2.1.2 0 1.1.1 2.7.1 6.6 0 24-.8 34.9-8.5 13.4-9.6 16.2-26 16.3-26.7.1-1.1-.6-2.1-1.7-2.3z"/>
  </g>
</svg>
