<?xml version="1.0" encoding="UTF-8"?>
<svg width="14px" height="15px" viewBox="0 0 14 15" version="1.1" xmlns="http://www.w3.org/2000/svg" xmlns:xlink="http://www.w3.org/1999/xlink">
    <!-- Generator: Sketch 48.2 (47327) - http://www.bohemiancoding.com/sketch -->
    <title>origin</title>
    <desc>Created with Sketch.</desc>
    <defs></defs>
    <g id="Page-1" stroke="none" stroke-width="1" fill="none" fill-rule="evenodd">
        <g id="origin" fill="#2196F3" fill-rule="nonzero">
            <path d="M5,0 C2.2,0 0,2.2 0,5 C0,9.3 4.5,14.7 4.7,14.9 C4.7,14.9 4.8,14.9 4.8,15 L4.9,15 L5,15 C5,15 5.1,15 5.1,14.9 C5.4,14.6 9.9,9.3 9.9,5 C9.9,2.2 7.7,0 5,0 Z M4.9,13.3 C3.3,11.3 1.1,7.7 1.1,5 C1.2,2.9 2.9,1.2 5,1.2 C7,1.2 8.7,2.9 8.7,5 C8.7,7.7 6.5,11.3 4.9,13.3 Z" id="Shape"></path>
            <path d="M9.6,0.8 C10.1,1.3 10.6,1.8 10.9,2.4 C11.8,3 12.4,4 12.4,5.2 C12.4,7.7 10.4,10.9 9,12.8 C8.9,12.7 8.9,12.6 8.8,12.5 C8.6,12.8 8.4,13.2 8.2,13.5 C8.5,13.9 8.8,14.2 8.8,14.2 C8.8,14.2 8.9,14.2 8.9,14.3 L9,14.3 L9.1,14.3 C9.1,14.3 9.2,14.3 9.2,14.2 C9.4,14 13.4,9.2 13.4,5.2 C13.5,2.9 11.8,1.1 9.6,0.8 Z" id="Shape"></path>
            <circle id="Oval" cx="5" cy="5" r="1.5"></circle>
        </g>
    </g>
</svg>