<?xml version="1.0" encoding="UTF-8"?>
<svg width="12px" height="17px" viewBox="0 0 12 17" version="1.1" xmlns="http://www.w3.org/2000/svg" xmlns:xlink="http://www.w3.org/1999/xlink">
    <!-- Generator: Sketch 48.2 (47327) - http://www.bohemiancoding.com/sketch -->
    <title>origin</title>
    <desc>Created with Sketch.</desc>
    <defs></defs>
    <g id="Page-1" stroke="none" stroke-width="1" fill="none" fill-rule="evenodd">
        <g id="origin" transform="translate(1.000000, 1.000000)" fill="#2196F3" fill-rule="nonzero">
            <path d="M5,0 C2.2,0 0,2.2 0,5 C0,9.3 4.5,14.7 4.7,14.9 C4.7,14.9 4.8,14.9 4.8,15 L4.9,15 L5,15 C5,15 5.1,15 5.1,14.9 C5.4,14.6 9.9,9.3 9.9,5 C9.9,2.2 7.7,0 5,0 Z M4.9,13.3 C3.3,11.3 1.1,7.7 1.1,5 C1.2,2.9 2.9,1.2 5,1.2 C7,1.2 8.7,2.9 8.7,5 C8.7,7.7 6.5,11.3 4.9,13.3 Z" id="Shape" stroke="#2196F3"></path>
            <circle id="Oval" cx="5" cy="5" r="1.5"></circle>
        </g>
    </g>
</svg>