<svg width="100" height="100" xmlns="http://www.w3.org/2000/svg">
  <g fill="#F37639" fill-rule="nonzero">
    <path d="M49.998.001C22.43.001 0 22.43 0 50c0 13.355 5.201 25.91 14.645 35.355a2.118 2.118 0 1 0 2.996-2.997C8.998 73.715 4.239 62.224 4.239 50c0-25.233 20.529-45.763 45.759-45.763 25.235 0 45.765 20.53 45.765 45.763 0 25.233-20.53 45.761-45.765 45.761a2.118 2.118 0 1 0 0 4.238C77.57 99.999 100 77.57 100 50 100 22.43 77.57.001 49.998.001z"/>
    <path d="M47.88 78.512a2.12 2.12 0 0 0 4.239 0v-5.931c6.548-1.025 11.577-6.687 11.577-13.516 0-7.559-5.161-12.803-13.475-13.686-4.89-.519-7.167-2.73-7.167-6.957 0-3.83 3.115-6.945 6.943-6.945 3.831 0 6.947 3.116 6.947 6.945a2.118 2.118 0 1 0 4.237 0c0-5.441-3.907-9.982-9.063-10.976v-5.957a2.12 2.12 0 0 0-4.239 0v5.956c-5.154.994-9.062 5.535-9.062 10.977 0 3.131.929 5.693 2.763 7.619 1.883 1.981 4.64 3.174 8.195 3.553 6.154.651 9.684 4.105 9.684 9.471 0 5.215-4.244 9.459-9.461 9.459-5.215 0-9.458-4.244-9.458-9.459a2.12 2.12 0 1 0-4.239 0c0 6.83 5.032 12.492 11.579 13.517v5.93z"/>
  </g>
</svg>
