<?xml version="1.0" encoding="iso-8859-1"?>
<!-- Generator: Adobe Illustrator 19.0.0, SVG Export Plug-In . SVG Version: 6.00 Build 0)  -->
<svg version="1.1" id="Layer_1" xmlns="http://www.w3.org/2000/svg" xmlns:xlink="http://www.w3.org/1999/xlink" x="0px" y="0px"
	 viewBox="0 0 512 512" style="enable-background:new 0 0 512 512;" xml:space="preserve">
<g>
	<g>
		<path d="M457.306,182.965c-2.688-4.659-7.698-7.553-13.076-7.553h-70.516v57.311c0.642-0.108,1.299-0.178,1.972-0.178h110.216v0
			L457.306,182.965z"/>
	</g>
</g>
<g>
	<g>
		<path d="M497.957,304.985v-48.736H375.686c-0.673,0-1.33-0.069-1.972-0.178v48.513h-20.741V136.916H20.717v167.668h-2.939
			C7.96,304.584,0,312.544,0,322.362c0,9.818,7.96,17.778,17.778,17.778h1.342h35.508c1.049-27.057,23.375-48.749,50.684-48.749
			s49.637,21.692,50.684,48.749h198.574h29.577c1.049-27.057,23.375-48.749,50.685-48.749c27.309,0,49.637,21.692,50.684,48.749
			h8.705c9.818,0,17.778-7.96,17.778-17.778C512,313.826,505.98,306.701,497.957,304.985z"/>
	</g>
</g>


</svg>
