<svg viewBox="0 0 100 100" xmlns="http://www.w3.org/2000/svg">
  <path d="M88.3684 4.421h-12.842c-.9475 0-1.8948.3158-2.6317.8422l-1.1579.842c-2.421 1.6843-5.0526 2.9474-7.7894 3.6843C61.842 4.1053 56.3684 0 49.9474 0S38.0526 4.1053 35.842 9.7895c-2.7368-.7369-5.3684-2-7.7895-3.6842l-1.1579-.8421c-.7368-.5264-1.6842-.8421-2.6315-.8421H11.5263C9 4.421 7 6.421 7 8.9474s2 4.5263 4.5263 4.5263h11.2632C26.5789 16.2105 30.8947 18 35.421 18.9474c.5263 2 1.4736 3.7894 2.7368 5.3684-7.8947 4.2105-13.3684 12.5263-13.3684 22.1053v28.6315c0 4.3158 3.4737 7.7895 7.7894 7.7895h2.3158v-14.421c0-8.3158 6.7369-15.158 15.158-15.158 8.3157 0 15.0526 6.7369 15.0526 15.158v14.421h2.3158c4.3157 0 7.7894-3.4737 7.7894-7.7895V46.4211c0-6.9474-2.842-13.158-7.3684-17.7895-1.7895-1.6842-3.7895-3.158-6-4.3158 1.2632-1.579 2.1053-3.3684 2.6316-5.3684C69 18 73.2105 16.2105 77.1053 13.4737h11.2631c2.5263 0 4.5263-2 4.5263-4.5263S90.7895 4.421 88.3684 4.421zm-38.421 2.4211c4.5263 0 8.3158 3.6842 8.3158 8.3158 0 4.6316-3.6843 8.3158-8.3158 8.3158-4.5263 0-8.3158-3.6842-8.3158-8.3158 0-4.6316 3.7895-8.3158 8.3158-8.3158zm0 53.2632c4.5263 0 8.3158 3.7894 8.3158 8.3158v23.2631c0 4.6316-3.7895 8.3158-8.3158 8.3158-4.6316 0-8.3158-3.7895-8.3158-8.3158V68.4211c0-4.6316 3.7895-8.3158 8.3158-8.3158z" fill-rule="nonzero"/>
</svg>
