<svg viewBox="0 0 90 70" xmlns="http://www.w3.org/2000/svg">
  <path d="M85.45 48.104l4.319-1.489c-2.031-3.74-5.298-6.521-9.157-7.608l-7.115-28.153h2.325c2.86 0 5.178-2.317 5.178-5.177C81 2.819 78.683.501 75.824.501H57v7h8.853L62 44.5H38l2.406-16.041C42.415 28.251 44 26.562 44 24.5v-3c0-2.2-1.8-4-4-4H14c-2.2 0-4 1.8-4 4v3L0 41.112V56.5h7.05c-.026.332-.05.666-.05 1 0 6.626 5.374 12 12.001 12C25.627 69.5 31 64.126 31 57.5c0-.334-.023-.668-.05-1h35.101c-.028.33-.051.662-.051 1 0 6.626 5.374 12 12.001 12C84.627 69.5 90 64.126 90 57.5c0-3.809-1.781-7.197-4.55-9.396zM19.001 62.5c-2.758 0-5.001-2.243-5.001-5 0-.334.036-.669.097-1h9.807c.061.331.097.666.097 1-.001 2.757-2.244 5-5 5zm-1.756-13.79l3.273-8.427-7.529-.083L24.69 28.5l-3.445 8.601 7.699-.091-11.699 11.7zM78.001 62.5c-2.758 0-5.001-2.243-5.001-5s2.243-5 5.001-5c2.756 0 4.999 2.243 4.999 5s-2.243 5-4.999 5z" fill-rule="nonzero"/>
</svg>
